<svg id="a45b0e64-f6f4-46c3-9b4a-780dadba2ddf" data-name="Layer 1" xmlns="http://www.w3.org/2000/svg" viewBox="0 0 512 512"><defs><style>.b68ef1a3-7c27-4c43-8f17-a3d156c2042d{fill:#00b44c;}.ad6e7ab9-6279-4e76-b25a-ed0fd387e15a{fill:#ffa600;stroke:#000;stroke-miterlimit:10;stroke-width:2px;}.b784b18b-df54-4660-b5fe-0ee930cbdac2{fill:none;}</style></defs><rect class="b68ef1a3-7c27-4c43-8f17-a3d156c2042d" width="512" height="512"/><path class="ad6e7ab9-6279-4e76-b25a-ed0fd387e15a" d="M202.88,201l18.74-.38v133.5c-.36,2.55-2.29,14.12-12.37,21-7,4.77-14.27,4.84-18.37,4.88a41.28,41.28,0,0,1-21-5.62A158.8,158.8,0,0,1,133.5,333a15.84,15.84,0,0,1-3.75-4.12c-3-4.9-2.37-10.28-2.25-11.63.7-7.62.33-57.68-.38-127.13a12.6,12.6,0,0,1,.76-4.87c.9-2.44,2.62-4.59,8.24-8.63a57.36,57.36,0,0,1,7.5-4.87c15.22-7.91,29.47-17.55,44.26-26.25,27.74-16.33,35.1-22.64,57.74-33,2.81-1.28,5.16-2.31,6.76-3a18.54,18.54,0,0,1,16.12,4.12l106.88,61.5a23.74,23.74,0,0,1,6,6.38,27.28,27.28,0,0,1,3.37,9.38c1.11,7.3,1.5,59.57.75,131.24A19.1,19.1,0,0,1,384,327a21.93,21.93,0,0,1-8.25,9c-31.13,20.33-75.37,43.87-75.37,43.88A351.66,351.66,0,0,0,267,400.12a21.13,21.13,0,0,1-9,2.63c-6.39.34-11.26-2.57-13.88-4.13-8.71-5.18-21.78-12.88-37.87-22.87L225,365.62l30,16.88,111-63.38L365.62,192,255.75,128.25,145.5,191.62l.75,126,32.25,21a17.76,17.76,0,0,0,15,.38,17.54,17.54,0,0,0,9-10.12c.21-38.56.38-68.63.38-68.63h0Z"/><path class="ad6e7ab9-6279-4e76-b25a-ed0fd387e15a" d="M251.62,274.5,234,274.12a27.71,27.71,0,0,0-.38,14.26,28.63,28.63,0,0,0,7.13,12.74c4.78,5.31,9.92,7.66,14.63,9.76a71.1,71.1,0,0,0,23.24,5.62,95.45,95.45,0,0,0,26.26-1.12c10.6-1.92,16.71-3,23.24-7.88a35.3,35.3,0,0,0,13.13-18.38c.9-3.05,3.67-12.21-.75-21.74a27.17,27.17,0,0,0-8.62-10.5c-3.07-2.2-6.67-3.35-13.88-5.63a103.48,103.48,0,0,0-10.88-3c-7.89-1.66-8.81-.71-18.74-2.25-5.3-.82-9.74-1.82-15-3-3.89-.87-6.45-.43-9.38-2.25a12.14,12.14,0,0,1-5.62-7.13c-1.42-5.4,2-9.77,2.24-10.12,2.47-3.07,5.82-3.82,10.88-4.88,1.66-.34,5.14-1,15.75-.74,11.44.24,14.56,1.13,15.75,1.5,3.38,1,7.39,2.32,10.5,6a23.07,23.07,0,0,1,3.75,6.74,27,27,0,0,1,1.5,6l18.23.72.9,0A66.85,66.85,0,0,0,336,224.62c-1.14-4.63-2.17-6.58-3-7.87-1.38-2.15-2.81-3.46-5.62-6a53.43,53.43,0,0,0-7.5-6c-1.11-.69-5.12-3.12-12.76-4.87-6.19-1.43-10.71-1.47-19.5-1.5-9.7,0-14.68,0-21,1.5a62.51,62.51,0,0,0-13.12,4.87c-3.53,1.77-6.21,3.15-9,6a26,26,0,0,0-5.25,7.87c-2.32,5.41-2.14,10.11-1.87,15.38.34,6.81.53,10.6,3,14.62,2.84,4.64,6.94,6.72,12.37,9.38,2.46,1.2,7.94,3.69,19.87,6,10.88,2.11,23.07,3.29,24,3.38,6.16.58,11.73.9,17.63,4.5,4.21,2.56,5.46,4.88,6,6.37,1.54,4.27-.34,8.33-1.13,9.75-2.25,4.11-6.1,5.77-9.37,7.12-2,.83-6.22,2.36-17.25,2.63-7.47.18-13.19.28-20.62-1.5-6.12-1.46-11-2.7-14.63-7.13a18.26,18.26,0,0,1-3.75-8.24Z"/><path class="b784b18b-df54-4660-b5fe-0ee930cbdac2" d="M252,239.5"/></svg>